<?xml version="1.0" encoding="UTF-8" standalone="no"?>
<!-- Creator: CorelDRAW X6 -->

<svg
   xml:space="preserve"
   width="1.0416665in"
   height="1.0416665in"
   version="1.1"
   style="clip-rule:evenodd;fill-rule:evenodd;image-rendering:optimizeQuality;shape-rendering:geometricPrecision;text-rendering:geometricPrecision"
   viewBox="0 0 1041.6518 1041.6518"
   id="svg2"
   xmlns="http://www.w3.org/2000/svg"
   xmlns:svg="http://www.w3.org/2000/svg">
 <defs
   id="defs1"><style
     type="text/css"
     id="style1">
   <![CDATA[
    .fil0 {fill:#1977F3;fill-rule:nonzero}
    .fil1 {fill:#FEFEFE;fill-rule:nonzero}
   ]]>
  </style></defs>
 <g
   id="Layer_x0020_1">
  <metadata
   id="CorelCorpID_0Corel-Layer" />
  <path
   class="fil0"
   d="M 1041.6519,520.82597 C 1041.6519,233.20347 808.44847,0 520.82597,0 233.20347,0 0,233.20347 0,520.82597 0,780.76288 190.42997,996.24172 439.45378,1035.3531 V 671.41213 H 307.17819 V 520.82597 H 439.45378 V 406.05529 c 0,-130.51777 77.78332,-202.66143 196.72881,-202.66143 56.98251,0 116.60173,10.18068 116.60173,10.18068 v 128.17402 h -65.69834 c -64.67294,0 -84.88782,40.13677 -84.88782,81.37219 v 97.70522 H 746.63197 L 723.56065,671.41213 H 602.19816 V 1035.3531 C 851.22197,996.31496 1041.6519,780.83612 1041.6519,520.82597 Z"
   id="path1"
   style="stroke-width:0.0732423" />
  <path
   class="fil1"
   d="M 723.56065,671.41213 746.63197,520.82597 H 602.19816 v -97.70522 c 0,-41.16217 20.14163,-81.37219 84.88782,-81.37219 h 65.69834 V 213.57454 c 0,0 -59.61922,-10.18068 -116.60173,-10.18068 -118.94549,0 -196.72881,72.07042 -196.72881,202.66143 V 520.82597 H 307.17819 v 150.58616 h 132.27559 v 363.94097 c 26.51371,4.1748 53.6866,6.2988 81.37219,6.2988 27.68559,0 54.85848,-2.1972 81.37219,-6.2988 V 671.41213 Z"
   id="path2"
   style="stroke-width:0.0732423" />
 <path
   class="fil0"
   d="M 1041.6519,520.82597 C 1041.6519,233.20347 808.44847,0 520.82597,0 233.20347,0 0,233.20347 0,520.82597 0,780.76288 190.42997,996.24172 439.45378,1035.3531 V 671.41213 H 307.17819 V 520.82597 H 439.45378 V 406.05529 c 0,-130.51777 77.78332,-202.66143 196.72881,-202.66143 56.98251,0 116.60173,10.18068 116.60173,10.18068 v 128.17402 h -65.69834 c -64.67294,0 -84.88782,40.13677 -84.88782,81.37219 v 97.70522 H 746.63197 L 723.56065,671.41213 H 602.19816 V 1035.3531 C 851.22197,996.31496 1041.6519,780.83612 1041.6519,520.82597 Z"
   id="path3"
   style="stroke-width:0.0732423" /><path
   class="fil1"
   d="M 723.56065,671.41213 746.63197,520.82597 H 602.19816 v -97.70522 c 0,-41.16217 20.14163,-81.37219 84.88782,-81.37219 h 65.69834 V 213.57454 c 0,0 -59.61922,-10.18068 -116.60173,-10.18068 -118.94549,0 -196.72881,72.07042 -196.72881,202.66143 V 520.82597 H 307.17819 v 150.58616 h 132.27559 v 363.94097 c 26.51371,4.1748 53.6866,6.2988 81.37219,6.2988 27.68559,0 54.85848,-2.1972 81.37219,-6.2988 V 671.41213 Z"
   id="path4"
   style="stroke-width:0.0732423" /></g>
</svg>
