<?xml version="1.0" encoding="UTF-8" standalone="no"?>
<svg
   width="100.00002"
   height="100.00002"
   viewBox="0 0 26.458335 26.458333"
   version="1.1"
   id="svg15"
   xmlns:xlink="http://www.w3.org/1999/xlink"
   xmlns="http://www.w3.org/2000/svg"
   xmlns:svg="http://www.w3.org/2000/svg">
  <defs
     id="defs11">
    <radialGradient
       id="f"
       cx="158.429"
       cy="578.08801"
       r="52.351501"
       xlink:href="#a"
       gradientUnits="userSpaceOnUse"
       gradientTransform="matrix(0,-0.40341804,0.42801804,0,-240.40432,92.409279)"
       fx="158.429"
       fy="578.08801" />
    <radialGradient
       xlink:href="#b"
       id="g"
       gradientUnits="userSpaceOnUse"
       gradientTransform="matrix(0.06744101,-0.11620301,0.15128302,0.08780101,-88.618149,-6.5978307)"
       cx="172.6149"
       cy="600.69238"
       fx="172.6149"
       fy="600.69238"
       r="65" />
    <radialGradient
       xlink:href="#c"
       id="h"
       cx="144.01199"
       cy="51.3367"
       fx="144.01199"
       fy="51.3367"
       r="67.081001"
       gradientTransform="matrix(-0.23989002,0.06754901,-0.023008,-0.08173201,39.318004,-4.4546405)"
       gradientUnits="userSpaceOnUse" />
    <radialGradient
       xlink:href="#d"
       id="e"
       gradientUnits="userSpaceOnUse"
       gradientTransform="matrix(-0.31079703,0.08765201,-0.06315001,-0.22391402,127.38347,135.60555)"
       cx="199.78841"
       cy="628.43793"
       fx="199.78841"
       fy="628.43793"
       r="52.351501" />
    <linearGradient
       id="d">
      <stop
         offset="0"
         stop-color="#ff005f"
         id="stop1" />
      <stop
         offset="1"
         stop-color="#fc01d8"
         id="stop2" />
    </linearGradient>
    <linearGradient
       id="c">
      <stop
         offset="0"
         stop-color="#780cff"
         id="stop3" />
      <stop
         stop-color="#820bff"
         offset="1"
         stop-opacity="0"
         id="stop4" />
    </linearGradient>
    <linearGradient
       id="b">
      <stop
         offset="0"
         stop-color="#fc0"
         id="stop5" />
      <stop
         offset="1"
         stop-color="#fc0"
         stop-opacity="0"
         id="stop6" />
    </linearGradient>
    <linearGradient
       id="a">
      <stop
         offset="0"
         stop-color="#fc0"
         id="stop7" />
      <stop
         offset=".1242"
         stop-color="#fc0"
         id="stop8" />
      <stop
         offset=".5672"
         stop-color="#fe4a05"
         id="stop9" />
      <stop
         offset=".6942"
         stop-color="#ff0f3f"
         id="stop10" />
      <stop
         offset="1"
         stop-color="#fe0657"
         stop-opacity="0"
         id="stop11" />
    </linearGradient>
  </defs>
  <g
     id="g15"
     transform="translate(2.2222112e-5)">
    <path
       d="M 13.233462,0 C 7.710411,0 6.0951208,0.0057 5.7811407,0.03175 4.6477206,0.12599002 3.9424405,0.30450004 3.1740604,0.68715009 2.5819203,0.98128012 2.1149103,1.3222102 1.6540102,1.8001302 0.8146301,2.6717003 0.30591004,3.7439605 0.12175002,5.0185506 0.03222,5.6373207 0.00617,5.7635107 8.8000011e-4,8.9241311 c -0.00203,1.0535402 0,2.4400699 0,4.2998409 0,5.52008 0.0061,7.134181 0.0325599999,7.447641 0.09157002,1.1032 0.26453004,1.79728 0.63081008,2.5565 0.70000012,1.45329 2.03690022,2.54428 3.61190042,2.95137 0.5453501,0.14044 1.1476702,0.21779 1.9209203,0.25442 0.32762,0.01425 3.6668404,0.02443 7.0081012,0.02443 3.34127,0 6.682531,-0.0041 7.002001,-0.02035 0.89535,-0.04214 1.41526,-0.11195 1.99011,-0.26054 1.58517,-0.40912 2.89767,-1.48383 3.6119,-2.95748 0.35916,-0.7409 0.54128,-1.46144 0.6237,-2.50704 0.0179,-0.22796 0.02543,-3.862631 0.02543,-7.492401 0,-3.6304008 -0.0081,-7.2583512 -0.02605,-7.4863213 -0.08343,-1.0624901 -0.26555,-1.7769202 -0.6363,-2.5320703 -0.30421,-0.6181601 -0.642,-1.0798001 -1.1324,-1.5518002 -0.8752,-0.8361601 -1.94555,-1.34502016 -3.22101,-1.52902018 C 20.824553,0.03195 20.701453,0.00549 17.539252,0 Z"
       fill="url(#e)"
       id="path11"
       style="fill:url(#e);stroke-width:0.1" />
    <path
       d="M 13.233462,0 C 7.710411,0 6.0951208,0.0057 5.7811407,0.03175 4.6477206,0.12599002 3.9424405,0.30450004 3.1740604,0.68715009 2.5819203,0.98128012 2.1149103,1.3222102 1.6540102,1.8001302 0.8146301,2.6717003 0.30591004,3.7439605 0.12175002,5.0185506 0.03222,5.6373207 0.00617,5.7635107 8.8000011e-4,8.9241311 c -0.00203,1.0535402 0,2.4400699 0,4.2998409 0,5.52008 0.0061,7.134181 0.0325599999,7.447641 0.09157002,1.1032 0.26453004,1.79728 0.63081008,2.5565 0.70000012,1.45329 2.03690022,2.54428 3.61190042,2.95137 0.5453501,0.14044 1.1476702,0.21779 1.9209203,0.25442 0.32762,0.01425 3.6668404,0.02443 7.0081012,0.02443 3.34127,0 6.682531,-0.0041 7.002001,-0.02035 0.89535,-0.04214 1.41526,-0.11195 1.99011,-0.26054 1.58517,-0.40912 2.89767,-1.48383 3.6119,-2.95748 0.35916,-0.7409 0.54128,-1.46144 0.6237,-2.50704 0.0179,-0.22796 0.02543,-3.862631 0.02543,-7.492401 0,-3.6304008 -0.0081,-7.2583512 -0.02605,-7.4863213 -0.08343,-1.0624901 -0.26555,-1.7769202 -0.6363,-2.5320703 -0.30421,-0.6181601 -0.642,-1.0798001 -1.1324,-1.5518002 -0.8752,-0.8361601 -1.94555,-1.34502016 -3.22101,-1.52902018 C 20.824553,0.03195 20.701453,0.00549 17.539252,0 Z"
       fill="url(#f)"
       id="path12"
       style="fill:url(#f);stroke-width:0.1" />
    <path
       d="M 13.233462,0 C 7.710411,0 6.0951208,0.0057 5.7811407,0.03175 4.6477206,0.12599002 3.9424405,0.30450004 3.1740604,0.68715009 2.5819203,0.98128012 2.1149103,1.3222102 1.6540102,1.8001302 0.8146301,2.6717003 0.30591004,3.7439605 0.12175002,5.0185506 0.03222,5.6373207 0.00617,5.7635107 8.8000011e-4,8.9241311 c -0.00203,1.0535402 0,2.4400699 0,4.2998409 0,5.52008 0.0061,7.134181 0.0325599999,7.447641 0.09157002,1.1032 0.26453004,1.79728 0.63081008,2.5565 0.70000012,1.45329 2.03690022,2.54428 3.61190042,2.95137 0.5453501,0.14044 1.1476702,0.21779 1.9209203,0.25442 0.32762,0.01425 3.6668404,0.02443 7.0081012,0.02443 3.34127,0 6.682531,-0.0041 7.002001,-0.02035 0.89535,-0.04214 1.41526,-0.11195 1.99011,-0.26054 1.58517,-0.40912 2.89767,-1.48383 3.6119,-2.95748 0.35916,-0.7409 0.54128,-1.46144 0.6237,-2.50704 0.0179,-0.22796 0.02543,-3.862631 0.02543,-7.492401 0,-3.6304008 -0.0081,-7.2583512 -0.02605,-7.4863213 -0.08343,-1.0624901 -0.26555,-1.7769202 -0.6363,-2.5320703 -0.30421,-0.6181601 -0.642,-1.0798001 -1.1324,-1.5518002 -0.8752,-0.8361601 -1.94555,-1.34502016 -3.22101,-1.52902018 C 20.824553,0.03195 20.701453,0.00549 17.539252,0 Z"
       fill="url(#g)"
       id="path13"
       style="fill:url(#g);stroke-width:0.1" />
    <path
       d="M 13.233462,0 C 7.710411,0 6.0951208,0.0057 5.7811407,0.03175 4.6477206,0.12599002 3.9424405,0.30450004 3.1740604,0.68715009 2.5819203,0.98128012 2.1149103,1.3222102 1.6540102,1.8001302 0.8146301,2.6717003 0.30591004,3.7439605 0.12175002,5.0185506 0.03222,5.6373207 0.00617,5.7635107 8.8000011e-4,8.9241311 c -0.00203,1.0535402 0,2.4400699 0,4.2998409 0,5.52008 0.0061,7.134181 0.0325599999,7.447641 0.09157002,1.1032 0.26453004,1.79728 0.63081008,2.5565 0.70000012,1.45329 2.03690022,2.54428 3.61190042,2.95137 0.5453501,0.14044 1.1476702,0.21779 1.9209203,0.25442 0.32762,0.01425 3.6668404,0.02443 7.0081012,0.02443 3.34127,0 6.682531,-0.0041 7.002001,-0.02035 0.89535,-0.04214 1.41526,-0.11195 1.99011,-0.26054 1.58517,-0.40912 2.89767,-1.48383 3.6119,-2.95748 0.35916,-0.7409 0.54128,-1.46144 0.6237,-2.50704 0.0179,-0.22796 0.02543,-3.862631 0.02543,-7.492401 0,-3.6304008 -0.0081,-7.2583512 -0.02605,-7.4863213 -0.08343,-1.0624901 -0.26555,-1.7769202 -0.6363,-2.5320703 -0.30421,-0.6181601 -0.642,-1.0798001 -1.1324,-1.5518002 -0.8752,-0.8361601 -1.94555,-1.34502016 -3.22101,-1.52902018 C 20.824553,0.03195 20.701453,0.00549 17.539252,0 Z"
       fill="url(#h)"
       id="path14"
       style="fill:url(#h);stroke-width:0.1" />
    <path
       d="m 13.234502,3.3973004 c -2.671671,0 -3.006961,0.01167 -4.0562908,0.05939 -1.0472702,0.04792 -1.7621203,0.2136001 -2.3876203,0.4567001 -0.6470101,0.25107 -1.1958602,0.5869301 -1.7426503,1.1335201 -0.5472,0.5464001 -0.8833201,1.0948302 -1.1354001,1.7411603 -0.24389,0.62524 -0.4099001,1.3397601 -0.4570301,2.3858503 -0.04693,1.0485398 -0.05923,1.3837898 -0.05923,4.0534808 0,2.6697 0.01189,3.00371 0.05943,4.05225 0.04817,1.0465 0.2139701,1.76082 0.4570301,2.38585 0.25147,0.646541 0.5875801,1.194971 1.1345801,1.741361 0.5466001,0.5468 1.0954402,0.88349 1.7420403,1.13456 0.6259,0.24309 1.3409701,0.40877 2.3880303,0.4567 1.0493298,0.0477 1.3844098,0.05938 4.0558808,0.05938 2.67188,0 3.00615,-0.01167 4.05547,-0.05939 1.04728,-0.04792 1.76295,-0.2136 2.38885,-0.4567 0.646811,-0.25106 1.194841,-0.58775 1.741431,-1.13455 0.5472,-0.54639 0.88332,-1.09482 1.1354,-1.741151 0.24183,-0.62524 0.40784,-1.33976 0.45703,-2.38585 0.04713,-1.04854 0.05943,-1.38277 0.05943,-4.05246 0,-2.669701 -0.0123,-3.004731 -0.05943,-4.0532808 -0.04919,-1.0465002 -0.2152,-1.7608103 -0.45703,-2.3858403 -0.25208,-0.6465401 -0.5882,-1.1949802 -1.1354,-1.7413703 -0.54721,-0.5468 -1.09442,-0.8826601 -1.742041,-1.1335301 -0.62714,-0.24309 -1.3424,-0.4087701 -2.38967,-0.4566901 -1.04933,-0.04772 -1.38339,-0.05939 -4.05588,-0.05939 z m -0.8825,1.7714703 c 0.26193,-4.1e-4 0.55418,0 0.8825,0 2.62659,0 2.9379,0.00942 3.97513,0.05652 0.95915,0.04383 1.47971,0.20397 1.82648,0.33852 0.45908,0.17817 0.78638,0.3911601 1.130481,0.7352101 0.34431,0.34406 0.55745,0.6717301 0.73617,1.1304601 0.13465,0.3461001 0.29512,0.8662801 0.33877,1.8247203 0.04714,1.0362498 0.05739,1.3475398 0.05739,3.9709508 0,2.6234 -0.01025,2.9347 -0.05739,3.97095 -0.04386,0.95843 -0.20412,1.47861 -0.33877,1.82471 -0.1783,0.45874 -0.39186,0.78539 -0.73617,1.129231 -0.344301,0.34406 -0.671201,0.55704 -1.130481,0.73521 -0.34636,0.13517 -0.86733,0.2949 -1.82648,0.33873 -1.03702,0.0471 -1.34854,0.05734 -3.97513,0.05734 -2.626791,0 -2.938101,-0.01024 -3.9751308,-0.05734 -0.9591402,-0.04423 -1.4797002,-0.20438 -1.8266803,-0.33893 -0.45908,-0.17817 -0.7870001,-0.39116 -1.1313001,-0.73521 -0.34431,-0.344051 -0.5574501,-0.670901 -0.7361701,-1.129851 -0.13465,-0.3461 -0.29512,-0.86628 -0.33877,-1.82471 -0.04714,-1.03626 -0.05657,-1.34754 -0.05657,-3.97259 0,-2.625041 0.00943,-2.934701 0.05657,-3.9709508 0.04386,-0.9584402 0.20412,-1.4786102 0.33877,-1.8251203 0.1783,-0.45874 0.3918601,-0.7864101 0.7361701,-1.1304601 0.3443,-0.3440601 0.6722201,-0.5570401 1.1313001,-0.7356201 0.3467701,-0.13517 0.8675401,-0.2949 1.8266803,-0.33894 0.9074998,-0.04096 1.2591898,-0.05324 3.0926408,-0.0553 z m 6.13363,1.6322002 c -0.65173,0 -1.1805,0.52776 -1.1805,1.1792001 0,0.6512501 0.52877,1.1796202 1.1805,1.1796202 0.65172,0 1.18049,-0.5283701 1.18049,-1.1796202 0,-0.6512401 -0.52877,-1.1796001 -1.1805,-1.1796001 z m -5.25113,1.3782601 c -2.789931,0 -5.051911,2.26031 -5.051911,5.048171 0,2.78786 2.26198,5.04714 5.051911,5.04714 2.78993,0 5.0511,-2.25928 5.0511,-5.04714 0,-2.787861 -2.26137,-5.048171 -5.0513,-5.048171 z m 0,1.7714703 c 1.8109,0 3.27914,1.4669397 3.27914,3.2767007 0,1.80956 -1.46824,3.2767 -3.27914,3.2767 -1.811101,0 -3.2791307,-1.46714 -3.2791307,-3.2767 0,-1.809761 1.4680297,-3.2767007 3.2791307,-3.2767007 z"
       fill="#ffffff"
       id="path15"
       style="stroke-width:0.1" />
  </g>
</svg>
