<?xml version="1.0" encoding="UTF-8" standalone="no"?>
<svg
   width="100"
   height="100"
   viewBox="0 0 100 100"
   fill="none"
   version="1.1"
   id="svg2"
   xmlns="http://www.w3.org/2000/svg"
   xmlns:svg="http://www.w3.org/2000/svg">
  <defs
     id="defs2" />
  <rect
     width="100"
     height="100"
     rx="18.055555"
     fill="#0077b5"
     id="rect1"
     x="0"
     y="0"
     style="stroke-width:0.138889" />
  <rect
     x="14.166667"
     y="17.361111"
     width="76.805557"
     height="73.055557"
     fill="#ffffff"
     id="rect2"
     style="stroke-width:0.138889" />
  <path
     fill-rule="evenodd"
     clip-rule="evenodd"
     d="M 10.58875,5.7332222 C 8.4551806,6.1970694 6.5579722,7.8955139 5.8339028,9.9897639 L 5.5555556,10.795194 v 39.209945 c 0,37.982222 0.00728,39.23125 0.2309444,39.889305 0.7822083,2.300834 2.7969306,4.054862 5.095542,4.436112 0.621375,0.103055 11.098791,0.130833 39.542264,0.104583 35.565138,-0.03264 38.742916,-0.05208 39.264583,-0.239028 2.096389,-0.750972 3.596667,-2.178055 4.338472,-4.126528 l 0.278195,-0.730972 V 50.005139 10.671708 L 94.027361,9.9407361 C 93.196944,7.7595417 91.229583,6.090625 89.005972,5.6814722 88.48625,5.5857639 77.113611,5.5494583 49.815278,5.556375 17.98375,5.5645278 11.224694,5.5950278 10.58875,5.7332222 Z M 26.887083,17.955417 c 1.437361,0.304583 2.580973,0.945694 3.720139,2.085139 1.146667,1.146805 1.679445,2.055277 2.045417,3.486527 0.461944,1.806945 0.221667,3.868889 -0.643472,5.5225 -0.529167,1.01125 -2.136667,2.619584 -3.147361,3.148889 -2.217223,1.161111 -5.038889,1.159306 -7.236667,-0.0044 -0.943056,-0.499445 -2.49875,-2.014445 -3.015,-2.936111 -1.604445,-2.864861 -1.227083,-6.514723 0.919167,-8.887639 1.9075,-2.108889 4.612916,-2.996806 7.357777,-2.414861 z m 42.361111,20.131805 c 3.292084,0.571806 5.581667,1.646806 7.416667,3.482639 2.269167,2.270417 3.622222,5.523472 4.242778,10.200695 0.296667,2.23625 0.385,6.760833 0.35,17.932222 l -0.03625,11.608611 -6.563333,0.03194 -6.563612,0.03194 -0.05097,-12.19625 c -0.05403,-12.908472 -0.06903,-13.258334 -0.653611,-15.221945 -0.338889,-1.138472 -1.022917,-2.303889 -1.73375,-2.95375 -1.211389,-1.107639 -2.361805,-1.488472 -4.504028,-1.490694 -4.406111,-0.0046 -6.785972,2.134861 -7.602083,6.83375 -0.1675,0.964583 -0.204167,2.882639 -0.249722,13.079583 L 53.246944,81.375278 46.682083,81.343333 40.1175,81.311389 40.08625,60.100972 40.055,38.890556 h 6.355 6.355139 l 0.03306,2.923472 0.03306,2.923611 0.551944,-0.854167 c 1.242362,-1.922361 3.551945,-3.845694 5.776389,-4.81 1.138611,-0.493611 2.916528,-0.989861 4.16375,-1.162083 1.170695,-0.161667 4.560695,-0.06111 5.924861,0.175833 z M 31.909028,60.132917 v 21.242361 l -6.634722,-0.03194 -6.634584,-0.03194 -0.03125,-21.210417 -0.03125,-21.210416 h 6.665834 6.665972 z"
     fill="#0077b5"
     id="path2"
     style="stroke-width:0.138889" />
</svg>
